<svg version="1.1" xmlns="http://www.w3.org/2000/svg" viewBox="0 0 1114.4564029772862 328.50317571682535"
  width="1114.4564029772862" height="328.50317571682535">
  <!-- svg-source:excalidraw -->

  <defs>
    <style class="style-fonts">
      @font-face {
        font-family: "Virgil";
        src: url("https://excalidraw.com/Virgil.woff2");
      }

      @font-face {
        font-family: "Cascadia";
        src: url("https://excalidraw.com/Cascadia.woff2");
      }
    </style>
  </defs>
  <rect x="0" y="0" width="1114.4564029772862" height="328.50317571682535" fill="#ffffff"></rect>
  <g stroke-linecap="round">
    <g stroke-opacity="0.1" fill-opacity="0.1"
      transform="translate(11.099397046491504 286.07189703800395) rotate(0 546.1288044421516 -121.82030917958946)">
      <path
        d="M-1.1 -0.19 C37.93 -26.69, 131.63 -164.18, 234.51 -159.12 C337.39 -154.07, 503.45 48.38, 616.18 30.12 C728.91 11.86, 831.68 -236.93, 910.89 -268.69 C990.1 -300.44, 1061.16 -178.66, 1091.45 -160.41 M0.52 -1.34 C39.44 -28.18, 131.55 -166.37, 234.04 -160.93 C336.53 -155.5, 502.59 49.59, 615.47 31.27 C728.35 12.96, 831.68 -238.89, 911.33 -270.84 C990.97 -302.78, 1063.47 -178.86, 1093.36 -160.38"
        stroke="#862e9c" stroke-width="2" fill="none"></path>
    </g>
  </g>
  <mask></mask>
</svg>