<svg width="119" height="38" viewBox="0 0 119 38" fill="none" xmlns="http://www.w3.org/2000/svg">
<g clip-path="url(#clip0_5_265)">
<g clip-path="url(#clip1_5_265)">
<path fill-rule="evenodd" clip-rule="evenodd" d="M5.19935 1.68287C2.4185 2.86907 2.32688 3.15278 1.29597 3.87425C0.753824 4.2537 0.461869 4.51194 0.317507 4.69923C0.0748898 4.96643 -0.0475127 5.33765 0.0168602 5.72081C0.128434 6.38493 0.75817 6.83281 1.42348 6.72103C1.57713 6.69522 1.71905 6.64151 1.84535 6.56648C2.05834 6.46525 2.42027 6.14947 3.30153 5.57315C5.46141 4.21239 7.51923 3.74633 8.80866 3.50173C13.5966 2.59356 17.0568 4.80791 17.5993 8.03747C18.1419 11.2669 15.1355 14.8909 10.7734 15.1967C7.25356 15.4434 4.44785 14.7137 3.81822 14.5359C3.57967 14.4665 3.4173 14.4313 3.28764 14.4068C3.11677 14.3609 2.90452 14.3377 2.70863 14.3706C2.04332 14.4824 1.59451 15.1114 1.70609 15.7756C1.75876 16.0891 1.92704 16.3544 2.15995 16.5354C2.30182 16.661 2.45726 16.7057 2.58835 16.7545C2.94186 16.8859 3.7401 17.1705 4.21761 17.2892C4.22927 17.2921 10.5502 18.9203 15.0681 17.2398C16.8111 16.5916 18.2972 15.0975 18.5015 14.879C19.0622 14.279 19.6295 13.7021 20.1027 12.6351C20.4641 11.8201 22.5766 7.60517 19.3566 3.68468C17.0957 0.932012 15.0547 0.606136 13.5192 0.316645C12.2306 0.0735852 8.56031 0.249217 5.19935 1.68287Z" fill="#2C2C2B"/>
<path fill-rule="evenodd" clip-rule="evenodd" d="M18.1 13.396C18.1321 13.4211 18.1377 13.4674 18.1124 13.4995L17.7371 13.9763C17.7119 14.0083 17.6655 14.0139 17.6334 13.9888L17.1427 13.6048C17.1107 13.5797 17.1051 13.5333 17.1303 13.5013L17.5056 13.0245C17.5308 12.9924 17.5773 12.9868 17.6094 13.0119L18.1 13.396Z" fill="white"/>
<path fill-rule="evenodd" clip-rule="evenodd" d="M15.3425 2.85239C15.3203 2.8866 15.3302 2.93213 15.3645 2.95419L15.8751 3.28217C15.9094 3.30423 15.9551 3.29439 15.9772 3.26014L16.3155 2.73682C16.3375 2.70262 16.3277 2.657 16.2934 2.63495L15.7828 2.30696C15.7485 2.28491 15.7028 2.29482 15.6807 2.32903L15.3425 2.85239Z" fill="white"/>
<path fill-rule="evenodd" clip-rule="evenodd" d="M14.0723 15.5104C14.1095 15.4937 14.1531 15.5104 14.1697 15.5476L14.4172 16.1011C14.4339 16.1383 14.4171 16.1819 14.3799 16.1986L13.8105 16.4533C13.7734 16.4699 13.7296 16.4532 13.713 16.416L13.4656 15.8625C13.4489 15.8253 13.4657 15.7816 13.5029 15.765L14.0723 15.5104Z" fill="white"/>
<path fill-rule="evenodd" clip-rule="evenodd" d="M11.2955 1.35733C11.2549 1.35366 11.2191 1.38367 11.2155 1.42431L11.1625 2.02828C11.1589 2.0689 11.189 2.10461 11.2296 2.10824L11.851 2.16287C11.8916 2.16642 11.9274 2.13644 11.931 2.09584L11.9839 1.4918C11.9875 1.45122 11.9574 1.41544 11.9168 1.41189L11.2955 1.35733Z" fill="white"/>
<path fill-rule="evenodd" clip-rule="evenodd" d="M7.87171 1.85492C7.91152 1.84645 7.95068 1.872 7.95898 1.91188L8.08323 2.5053C8.0916 2.54514 8.06601 2.58421 8.02611 2.59262L7.41564 2.72103C7.37577 2.7294 7.33657 2.70385 7.32828 2.664L7.20406 2.07055C7.1957 2.03075 7.22131 1.9916 7.26124 1.98318L7.87171 1.85492Z" fill="white"/>
<path fill-rule="evenodd" clip-rule="evenodd" d="M9.68825 16.3108C9.64785 16.3158 9.61919 16.3527 9.62438 16.3932L9.70087 16.9946C9.70598 17.035 9.74289 17.0635 9.78338 17.0585L10.4023 16.9803C10.4427 16.9752 10.4714 16.9383 10.4662 16.8979L10.3897 16.2964C10.3846 16.2561 10.3476 16.2274 10.3071 16.2325L9.68825 16.3108Z" fill="white"/>
<path fill-rule="evenodd" clip-rule="evenodd" d="M5.76261 15.8914C5.72281 15.8828 5.68361 15.9083 5.67514 15.9481L5.54881 16.5412C5.54031 16.581 5.56573 16.6202 5.60558 16.6287L6.21559 16.7585C6.25546 16.767 6.29474 16.7416 6.30316 16.7017L6.42953 16.1087C6.438 16.0688 6.4125 16.0297 6.37262 16.0211L5.76261 15.8914Z" fill="white"/>
<path fill-rule="evenodd" clip-rule="evenodd" d="M3.93284 3.31797C3.96768 3.29695 4.01303 3.30815 4.03405 3.34303L4.34725 3.86227C4.36831 3.89715 4.35708 3.94247 4.32221 3.96354L3.78811 4.28559C3.75321 4.30666 3.70778 4.29544 3.68679 4.26055L3.37355 3.74128C3.35252 3.7064 3.36383 3.66103 3.39873 3.63995L3.93284 3.31797Z" fill="white"/>
</g>
<g clip-path="url(#clip2_5_265)">
<path fill-rule="evenodd" clip-rule="evenodd" d="M53.3511 1.8858C50.6237 3.19032 50.5444 3.47771 49.5454 4.24278C49.02 4.64516 48.7395 4.91569 48.6033 5.10901C48.3723 5.38639 48.266 5.76252 48.3468 6.14257C48.4868 6.80128 49.1351 7.2217 49.795 7.08146C49.9474 7.04907 50.0869 6.98932 50.2099 6.90894C50.4183 6.79865 50.7664 6.46763 51.6221 5.854C53.7215 4.40174 55.7574 3.84775 57.0352 3.54801C61.7797 2.43508 65.3317 4.49881 66.0125 7.70209C66.6932 10.9052 63.8452 14.655 59.5003 15.1478C55.9943 15.5454 53.1598 14.9369 52.5231 14.7863C52.2818 14.7272 52.1181 14.699 51.9875 14.6801C51.8148 14.6416 51.6018 14.6275 51.4075 14.6688C50.7476 14.809 50.3262 15.4568 50.4662 16.1155C50.5323 16.4265 50.7118 16.6843 50.9523 16.8551C51.0994 16.9745 51.2566 17.0125 51.3897 17.0556C51.7485 17.1717 52.5582 17.4218 53.0404 17.5199C53.0522 17.5223 59.4372 18.8776 63.8788 17.0046C65.5923 16.2821 67.0129 14.7256 67.2076 14.4985C67.7421 13.8751 68.284 13.2743 68.711 12.188C69.0371 11.3582 70.9666 7.05646 67.5812 3.27786C65.2042 0.624813 63.1511 0.386879 61.6046 0.163589C60.3067 -0.0239145 56.6474 0.309159 53.3511 1.8858Z" fill="#2C2C2B"/>
<path fill-rule="evenodd" clip-rule="evenodd" d="M66.7428 13.0342C66.776 13.0579 66.7835 13.1039 66.7597 13.137L66.4052 13.6295C66.3813 13.6626 66.3352 13.6702 66.3021 13.6465L65.7953 13.2838C65.7623 13.2602 65.7547 13.2141 65.7785 13.181L66.133 12.6885C66.1568 12.6554 66.203 12.6478 66.2362 12.6715L66.7428 13.0342Z" fill="white"/>
<path fill-rule="evenodd" clip-rule="evenodd" d="M63.5351 2.6187C63.5144 2.65384 63.5263 2.6989 63.5615 2.71946L64.0857 3.02522C64.1209 3.04578 64.1661 3.03399 64.1868 2.99882L64.5022 2.46146C64.5228 2.42635 64.511 2.38119 64.4757 2.36064L63.9516 2.05487C63.9164 2.03431 63.8711 2.04618 63.8505 2.08131L63.5351 2.6187Z" fill="white"/>
<path fill-rule="evenodd" clip-rule="evenodd" d="M62.8096 15.3196C62.846 15.3013 62.8904 15.3161 62.9085 15.3526L63.1796 15.8949C63.1978 15.9314 63.1829 15.9757 63.1465 15.9939L62.5886 16.2728C62.5521 16.291 62.5077 16.2763 62.4895 16.2398L62.2186 15.6974C62.2003 15.661 62.2152 15.6166 62.2516 15.5984L62.8096 15.3196Z" fill="white"/>
<path fill-rule="evenodd" clip-rule="evenodd" d="M59.4276 1.2988C59.3869 1.29688 59.3524 1.3284 59.3506 1.36916L59.3236 1.97485C59.3218 2.01558 59.3533 2.04997 59.394 2.05185L60.0172 2.07974C60.0579 2.08155 60.0924 2.05006 60.0942 2.00934L60.1212 1.40359C60.123 1.36289 60.0914 1.32844 60.0507 1.32663L59.4276 1.2988Z" fill="white"/>
<path fill-rule="evenodd" clip-rule="evenodd" d="M56.0284 1.94295C56.0678 1.93277 56.108 1.95662 56.118 1.99611L56.2676 2.58365C56.2777 2.62309 56.2538 2.66322 56.2143 2.67334L55.6099 2.82784C55.5704 2.83792 55.5302 2.81408 55.5202 2.77462L55.3706 2.18705C55.3605 2.14764 55.3844 2.10743 55.424 2.0973L56.0284 1.94295Z" fill="white"/>
<path fill-rule="evenodd" clip-rule="evenodd" d="M58.464 16.3075C58.4238 16.3142 58.3968 16.3524 58.4037 16.3925L58.5059 16.9901C58.5128 17.0302 58.5509 17.0572 58.5911 17.0504L59.2061 16.9457C59.2462 16.9389 59.2733 16.9007 59.2664 16.8606L59.1642 16.263C59.1573 16.2229 59.1191 16.1959 59.0789 16.2027L58.464 16.3075Z" fill="white"/>
<path fill-rule="evenodd" clip-rule="evenodd" d="M54.5239 16.057C54.4838 16.0502 54.4457 16.0773 54.439 16.1175L54.3382 16.7154C54.3315 16.7556 54.3585 16.7936 54.3987 16.8004L55.0137 16.9039C55.0539 16.9107 55.0921 16.8836 55.0988 16.8434L55.1996 16.2455C55.2063 16.2053 55.1792 16.1673 55.139 16.1604L54.5239 16.057Z" fill="white"/>
<path fill-rule="evenodd" clip-rule="evenodd" d="M52.156 3.57379C52.1899 3.55129 52.2356 3.56053 52.2581 3.59448L52.5934 4.09978C52.6159 4.13373 52.6066 4.17949 52.5727 4.20204L52.0529 4.54672C52.0189 4.56928 51.9731 4.56002 51.9506 4.52606L51.6154 4.02072C51.5929 3.98677 51.6022 3.94096 51.6362 3.9184L52.156 3.57379Z" fill="white"/>
</g>
<g clip-path="url(#clip3_5_265)">
<path fill-rule="evenodd" clip-rule="evenodd" d="M101.588 2.04757C98.9044 3.43959 98.8344 3.72939 97.8607 4.52636C97.3486 4.94551 97.0769 5.22498 96.947 5.4226C96.7252 5.7073 96.6311 6.08667 96.7241 6.46391C96.8853 7.11775 97.5469 7.51699 98.2019 7.35549C98.3532 7.31819 98.4907 7.25396 98.611 7.16964C98.8158 7.05267 99.1529 6.71057 99.9883 6.06959C102.04 4.55022 104.057 3.93069 105.324 3.5898C110.03 2.32405 113.647 4.27185 114.431 7.45145C115.215 10.6309 112.49 14.4708 108.163 15.1039C104.672 15.6146 101.819 15.0981 101.178 14.9681C100.935 14.9168 100.77 14.8939 100.639 14.8793C100.465 14.8464 100.252 14.8392 100.059 14.8867C99.4038 15.0482 99.0036 15.7093 99.1648 16.3631C99.2409 16.6718 99.4287 16.9237 99.6746 17.0866C99.8255 17.2012 99.9838 17.2341 100.118 17.2729C100.481 17.3773 101.298 17.6011 101.783 17.6835C101.795 17.6855 108.22 18.8337 112.599 16.8181C114.288 16.0406 115.658 14.439 115.845 14.2057C116.359 13.5653 116.882 12.9473 117.273 11.8478C117.572 11.0078 119.362 6.64599 115.856 2.97881C113.394 0.404008 111.335 0.232579 109.782 0.0594078C108.478 -0.0860368 104.832 0.365176 101.588 2.04757Z" fill="#2C2C2B"/>
<path fill-rule="evenodd" clip-rule="evenodd" d="M115.333 12.7572C115.367 12.7798 115.376 12.8255 115.354 12.8594L115.015 13.3631C114.992 13.3969 114.946 13.406 114.913 13.3834L114.394 13.0373C114.361 13.0147 114.352 12.9689 114.374 12.935L114.713 12.4314C114.735 12.3975 114.781 12.3884 114.815 12.411L115.333 12.7572Z" fill="white"/>
<path fill-rule="evenodd" clip-rule="evenodd" d="M111.79 2.45082C111.771 2.4866 111.784 2.53125 111.82 2.55067L112.354 2.83932C112.39 2.85874 112.435 2.84548 112.454 2.80967L112.752 2.26239C112.771 2.22663 112.758 2.18188 112.722 2.16247L112.189 1.87381C112.153 1.85441 112.108 1.86773 112.088 1.90351L111.79 2.45082Z" fill="white"/>
<path fill-rule="evenodd" clip-rule="evenodd" d="M111.476 15.1685C111.512 15.149 111.557 15.1624 111.576 15.1983L111.864 15.7316C111.884 15.7674 111.87 15.8122 111.835 15.8316L111.286 16.1284C111.25 16.1478 111.205 16.1344 111.186 16.0986L110.898 15.5652C110.878 15.5294 110.892 15.4846 110.927 15.4652L111.476 15.1685Z" fill="white"/>
<path fill-rule="evenodd" clip-rule="evenodd" d="M107.642 1.26442C107.602 1.26381 107.568 1.29643 107.568 1.33722L107.56 1.94347C107.56 1.98424 107.593 2.01759 107.633 2.01815L108.257 2.02589C108.298 2.02637 108.331 1.99379 108.332 1.95303L108.339 1.34672C108.34 1.30599 108.307 1.27257 108.266 1.27208L107.642 1.26442Z" fill="white"/>
<path fill-rule="evenodd" clip-rule="evenodd" d="M104.266 2.01813C104.305 2.00668 104.346 2.02922 104.357 2.06837L104.526 2.65075C104.537 2.68985 104.514 2.73073 104.475 2.74212L103.876 2.91609C103.837 2.92743 103.796 2.90491 103.785 2.8658L103.616 2.28336C103.605 2.24431 103.628 2.20334 103.667 2.19194L104.266 2.01813Z" fill="white"/>
<path fill-rule="evenodd" clip-rule="evenodd" d="M107.165 16.2964C107.125 16.3044 107.099 16.3434 107.107 16.3833L107.229 16.9773C107.237 17.0172 107.276 17.0429 107.316 17.0348L107.927 16.9103C107.967 16.9022 107.993 16.8632 107.985 16.8233L107.863 16.2293C107.855 16.1895 107.816 16.1637 107.776 16.1718L107.165 16.2964Z" fill="white"/>
<path fill-rule="evenodd" clip-rule="evenodd" d="M103.219 16.1734C103.178 16.1679 103.141 16.1962 103.136 16.2366L103.054 16.8375C103.049 16.8779 103.077 16.915 103.117 16.9205L103.735 17.0041C103.776 17.0096 103.813 16.9813 103.819 16.9409L103.9 16.34C103.905 16.2996 103.877 16.2625 103.837 16.2569L103.219 16.1734Z" fill="white"/>
<path fill-rule="evenodd" clip-rule="evenodd" d="M100.448 3.77331C100.481 3.74973 100.527 3.75748 100.551 3.79069L100.902 4.28489C100.926 4.31809 100.918 4.36413 100.885 4.38776L100.377 4.74907C100.343 4.77271 100.297 4.76494 100.274 4.73173L99.9223 4.23749C99.8988 4.20429 99.9066 4.15819 99.9398 4.13455L100.448 3.77331Z" fill="white"/>
</g>
<g clip-path="url(#clip4_5_265)">
<path fill-rule="evenodd" clip-rule="evenodd" d="M30.8319 20.6912C27.8907 21.3906 27.7524 21.6548 26.6145 22.1918C26.016 22.4742 25.6846 22.6794 25.5107 22.8396C25.2264 23.062 25.0431 23.4072 25.0418 23.7957C25.0396 24.4692 25.5846 25.017 26.2593 25.0192C26.4151 25.0197 26.564 24.9907 26.7012 24.9381C26.9282 24.8743 27.3383 24.6242 28.3042 24.205C30.6629 23.2287 32.7699 23.1169 34.0821 23.0936C38.9547 23.0073 41.9911 25.7743 41.9803 29.0491C41.9695 32.3238 38.3942 35.3879 34.0432 34.9525C30.5322 34.601 27.8901 33.4079 27.2995 33.1262C27.0761 33.0176 26.922 32.9555 26.7984 32.9094C26.6377 32.8353 26.4324 32.7766 26.2338 32.7759C25.5592 32.7737 25.0105 33.3179 25.0083 33.9913C25.0073 34.3093 25.1283 34.5991 25.3273 34.8169C25.4459 34.9647 25.5916 35.035 25.7125 35.1052C26.0388 35.2945 26.7775 35.7098 27.2281 35.9075C27.2391 35.9123 33.1941 38.5848 37.931 37.6917C39.7584 37.3471 41.4756 36.1256 41.7138 35.9447C42.3679 35.4481 43.0244 34.9753 43.671 34.0036C44.165 33.2613 46.959 29.4638 44.4476 25.0557C42.6841 21.9607 40.7275 21.2947 39.263 20.75C38.034 20.2928 34.3868 19.8459 30.8319 20.6912Z" fill="#2C2C2B"/>
<path fill-rule="evenodd" clip-rule="evenodd" d="M41.5686 34.4153C41.596 34.4454 41.5937 34.492 41.5634 34.5193L41.1129 34.9259C41.0826 34.9532 41.0359 34.9509 41.0086 34.9207L40.5898 34.4593C40.5625 34.4291 40.5648 34.3825 40.595 34.3552L41.0456 33.9486C41.0758 33.9213 41.1226 33.9237 41.1499 33.9538L41.5686 34.4153Z" fill="white"/>
<path fill-rule="evenodd" clip-rule="evenodd" d="M40.6317 23.5573C40.6041 23.5873 40.6062 23.6339 40.6363 23.6614L41.0841 24.0709C41.1142 24.0984 41.1609 24.0965 41.1885 24.0664L41.6103 23.6078C41.6378 23.5778 41.6358 23.5312 41.6057 23.5036L41.1579 23.0941C41.1278 23.0666 41.081 23.0686 41.0535 23.0986L40.6317 23.5573Z" fill="white"/>
<path fill-rule="evenodd" clip-rule="evenodd" d="M37.2416 35.8189C37.2811 35.8087 37.3213 35.8325 37.3314 35.872L37.4818 36.4594C37.4919 36.4988 37.468 36.539 37.4286 36.5491L36.8243 36.704C36.7849 36.7141 36.7446 36.6903 36.7345 36.6508L36.5841 36.0634C36.574 36.024 36.5979 35.9838 36.6374 35.9736L37.2416 35.8189Z" fill="white"/>
<path fill-rule="evenodd" clip-rule="evenodd" d="M36.8954 21.4001C36.856 21.3897 36.8157 21.4132 36.8053 21.4527L36.651 22.039C36.6407 22.0784 36.6642 22.1187 36.7037 22.1291L37.3069 22.2879C37.3463 22.2983 37.3867 22.2748 37.397 22.2354L37.5513 21.649C37.5617 21.6096 37.5381 21.5692 37.4986 21.5589L36.8954 21.4001Z" fill="white"/>
<path fill-rule="evenodd" clip-rule="evenodd" d="M33.4368 21.3122C33.4775 21.3106 33.5118 21.3424 33.5132 21.3831L33.5354 21.989C33.537 22.0297 33.5051 22.0639 33.4644 22.0654L32.841 22.0889C32.8003 22.0904 32.766 22.0586 32.7645 22.0179L32.7423 21.412C32.7408 21.3713 32.7727 21.3371 32.8135 21.3355L33.4368 21.3122Z" fill="white"/>
<path fill-rule="evenodd" clip-rule="evenodd" d="M32.7854 35.8672C32.7447 35.8653 32.7102 35.8969 32.7085 35.9376L32.6823 36.5433C32.6805 36.584 32.7121 36.6184 32.7528 36.6202L33.376 36.6477C33.4167 36.6495 33.4513 36.618 33.453 36.5773L33.4792 35.9715C33.481 35.9309 33.4493 35.8964 33.4086 35.8946L32.7854 35.8672Z" fill="white"/>
<path fill-rule="evenodd" clip-rule="evenodd" d="M28.987 34.7907C28.9492 34.7756 28.9063 34.794 28.8912 34.8318L28.6665 35.3951C28.6514 35.4329 28.6698 35.4758 28.7077 35.4909L29.287 35.7219C29.3248 35.737 29.3678 35.7186 29.3829 35.6807L29.6076 35.1175C29.6227 35.0797 29.6042 35.0368 29.5663 35.0216L28.987 34.7907Z" fill="white"/>
<path fill-rule="evenodd" clip-rule="evenodd" d="M29.3074 22.0889C29.3453 22.0741 29.3881 22.0928 29.4029 22.1307L29.6239 22.6954C29.6388 22.7333 29.6201 22.7761 29.5821 22.791L29.0013 23.0182C28.9634 23.033 28.9205 23.0143 28.9057 22.9764L28.6847 22.4117C28.6698 22.3737 28.6886 22.3309 28.7266 22.316L29.3074 22.0889Z" fill="white"/>
</g>
<g clip-path="url(#clip5_5_265)">
<path fill-rule="evenodd" clip-rule="evenodd" d="M79.9052 20.4813C76.9213 20.9676 76.7644 21.2211 75.5908 21.6749C74.9736 21.9136 74.6284 22.0945 74.4434 22.2418C74.1439 22.4431 73.9362 22.7743 73.907 23.1617C73.8564 23.8332 74.3606 24.4188 75.0334 24.4695C75.1887 24.4812 75.3394 24.463 75.48 24.4204C75.711 24.3731 76.138 24.1531 77.1315 23.8044C79.5543 23.0001 81.6639 23.04 82.9744 23.1111C87.8405 23.3751 90.6702 26.3532 90.4242 29.6187C90.1781 32.8841 86.3918 35.6834 82.0833 34.9364C78.6067 34.3336 76.0571 32.9537 75.4883 32.6304C75.2733 32.5059 75.1241 32.4329 75.0041 32.378C74.8491 32.2926 74.6486 32.2193 74.4505 32.2043C73.7778 32.1536 73.1915 32.657 73.1409 33.3286C73.117 33.6456 73.2169 33.9434 73.3998 34.1749C73.5074 34.3308 73.6477 34.4114 73.7633 34.4902C74.0751 34.7024 74.782 35.1697 75.2172 35.3992C75.2279 35.4048 80.9754 38.4984 85.7643 37.948C87.6117 37.7356 89.4122 36.6406 89.6628 36.4773C90.3509 36.029 91.0397 35.6046 91.7545 34.6819C92.3005 33.977 95.3602 30.3901 93.172 25.813C91.6356 22.5992 89.7318 21.7944 88.3102 21.1458C87.1173 20.6015 83.5116 19.8937 79.9052 20.4813Z" fill="#2C2C2B"/>
<path fill-rule="evenodd" clip-rule="evenodd" d="M89.6279 34.9414C89.6531 34.9735 89.6474 35.0197 89.6152 35.0448L89.1367 35.418C89.1045 35.4431 89.0581 35.4374 89.033 35.4053L88.6485 34.915C88.6234 34.883 88.6291 34.8366 88.6612 34.8115L89.1398 34.4384C89.1719 34.4133 89.2184 34.419 89.2435 34.451L89.6279 34.9414Z" fill="white"/>
<path fill-rule="evenodd" clip-rule="evenodd" d="M89.4737 24.0442C89.444 24.0721 89.4428 24.1187 89.4708 24.1483L89.888 24.589C89.916 24.6186 89.9628 24.62 89.9925 24.592L90.4461 24.1649C90.4757 24.1369 90.4771 24.0903 90.449 24.0607L90.0318 23.62C90.0038 23.5904 89.957 23.5891 89.9273 23.617L89.4737 24.0442Z" fill="white"/>
<path fill-rule="evenodd" clip-rule="evenodd" d="M85.2112 36.0305C85.2513 36.0231 85.2897 36.0498 85.297 36.0899L85.4048 36.6866C85.412 36.7266 85.3853 36.765 85.3453 36.7723L84.7315 36.8833C84.6914 36.8905 84.6529 36.8639 84.6457 36.8238L84.5379 36.2271C84.5306 36.1871 84.5574 36.1487 84.5974 36.1414L85.2112 36.0305Z" fill="white"/>
<path fill-rule="evenodd" clip-rule="evenodd" d="M85.9021 21.6241C85.8636 21.6108 85.8216 21.6314 85.8084 21.67L85.6124 22.2438C85.5992 22.2823 85.6199 22.3242 85.6584 22.3374L86.2487 22.5392C86.2872 22.5524 86.3292 22.5318 86.3424 22.4933L86.5384 21.9194C86.5516 21.8809 86.5309 21.839 86.4923 21.8258L85.9021 21.6241Z" fill="white"/>
<path fill-rule="evenodd" clip-rule="evenodd" d="M82.4587 21.2879C82.4994 21.2892 82.5313 21.3234 82.5298 21.3641L82.5085 21.97C82.5071 22.0107 82.4729 22.0425 82.4321 22.0411L81.8087 22.0197C81.7679 22.0183 81.736 21.9841 81.7375 21.9434L81.7589 21.3375C81.7603 21.2969 81.7945 21.265 81.8353 21.2663L82.4587 21.2879Z" fill="white"/>
<path fill-rule="evenodd" clip-rule="evenodd" d="M80.7631 35.7585C80.7226 35.7536 80.686 35.7827 80.6813 35.8231L80.6117 36.4254C80.607 36.4658 80.636 36.5024 80.6765 36.5072L81.2961 36.5794C81.3366 36.5841 81.3733 36.5551 81.3779 36.5147L81.4476 35.9124C81.4523 35.872 81.4232 35.8353 81.3827 35.8306L80.7631 35.7585Z" fill="white"/>
<path fill-rule="evenodd" clip-rule="evenodd" d="M77.0519 34.4118C77.0153 34.394 76.9711 34.4093 76.9533 34.4459L76.6888 34.9915C76.671 35.0282 76.6863 35.0723 76.7229 35.0901L77.2841 35.3622C77.3208 35.3799 77.365 35.3646 77.3828 35.328L77.6474 34.7823C77.6651 34.7457 77.6498 34.7016 77.6131 34.6837L77.0519 34.4118Z" fill="white"/>
<path fill-rule="evenodd" clip-rule="evenodd" d="M78.2842 21.7658C78.3231 21.7538 78.3644 21.7755 78.3765 21.8144L78.5563 22.3935C78.5684 22.4324 78.5467 22.4737 78.5078 22.4858L77.9121 22.6707C77.8732 22.6828 77.8318 22.661 77.8197 22.6221L77.6399 22.043C77.6278 22.0041 77.6496 21.9627 77.6886 21.9506L78.2842 21.7658Z" fill="white"/>
</g>
</g>
<defs>
<clipPath id="clip0_5_265">
<rect width="119" height="38" fill="white"/>
</clipPath>
<clipPath id="clip1_5_265">
<rect width="21.8318" height="30.9283" fill="white" transform="translate(-3.67941 22.5872) rotate(-99.5368)"/>
</clipPath>
<clipPath id="clip2_5_265">
<rect width="21.8318" height="30.9283" fill="white" transform="translate(45.3781 23.1521) rotate(-101.998)"/>
</clipPath>
<clipPath id="clip3_5_265">
<rect width="21.8318" height="30.9283" fill="white" transform="translate(94.3069 23.5605) rotate(-103.851)"/>
</clipPath>
<clipPath id="clip4_5_265">
<rect width="21.8318" height="30.9283" fill="white" transform="translate(18.5496 39.7953) rotate(-89.8118)"/>
</clipPath>
<clipPath id="clip5_5_265">
<rect width="21.8318" height="30.9283" fill="white" transform="translate(66.2818 38.6534) rotate(-85.6909)"/>
</clipPath>
</defs>
</svg>
